HIERARCHY
ROOT RootJoint
{
    OFFSET   0.000000   0.000000   0.000000
    CHANNELS 6 Xposition Yposition Zposition Xrotation Yrotation Zrotation
    JOINT pelvis_lowerback
    {
        OFFSET   0.000000   0.093605   0.000000
        CHANNELS 3 Xrotation Yrotation Zrotation
        JOINT lowerback_torso
        {
            OFFSET   0.000000   0.100000   0.000000
            CHANNELS 3 Xrotation Yrotation Zrotation
            JOINT torso_head
            {
                OFFSET   0.000000   0.282350   0.000000
                CHANNELS 3 Xrotation Yrotation Zrotation
                End Site
                {
                    OFFSET   0.000000   0.192650   0.000000
                }
            }
            JOINT rTorso_Clavicle
            {
                OFFSET  -0.001000   0.157500   0.000000
                CHANNELS 3 Xrotation Yrotation Zrotation
                JOINT rShoulder
                {
                    OFFSET  -0.117647   0.000000   0.000000
                    CHANNELS 3 Xrotation Yrotation Zrotation
                    JOINT rElbow
                    {
                        OFFSET  -0.245000   0.000000   0.000000
                        CHANNELS 3 Xrotation Yrotation Zrotation
                        JOINT rWrist
                        {
                            OFFSET  -0.240000   0.000000   0.000000
                            CHANNELS 3 Xrotation Yrotation Zrotation
                            End Site
                            {
                                OFFSET  -0.116353  -0.002500   0.000000
                            }
                        }
                    }
                }
            }
            JOINT lTorso_Clavicle
            {
                OFFSET   0.001000   0.157500   0.000000
                CHANNELS 3 Xrotation Yrotation Zrotation
                JOINT lShoulder
                {
                    OFFSET   0.117647   0.000000   0.000000
                    CHANNELS 3 Xrotation Yrotation Zrotation
                    JOINT lElbow
                    {
                        OFFSET   0.245000   0.000000   0.000000
                        CHANNELS 3 Xrotation Yrotation Zrotation
                        JOINT lWrist
                        {
                            OFFSET   0.240000   0.000000   0.000000
                            CHANNELS 3 Xrotation Yrotation Zrotation
                            End Site
                            {
                                OFFSET   0.116353  -0.002500   0.000000
                            }
                        }
                    }
                }
            }
        }
    }
    JOINT rHip
    {
        OFFSET  -0.100000  -0.051395   0.000000
        CHANNELS 3 Xrotation Yrotation Zrotation
        JOINT rKnee
        {
            OFFSET   0.000000  -0.410000   0.000000
            CHANNELS 3 Xrotation Yrotation Zrotation
            JOINT rAnkle
            {
                OFFSET   0.000000  -0.390000   0.000000
                CHANNELS 3 Xrotation Yrotation Zrotation
                JOINT rToeJoint
                {
                    OFFSET   0.000000  -0.050000   0.130000
                    CHANNELS 3 Xrotation Yrotation Zrotation
                    End Site
                    {
                        OFFSET  -0.010000   0.002000   0.060000
                    }
                }
            }
        }
    }
    JOINT lHip
    {
        OFFSET   0.100000  -0.051395   0.000000
        CHANNELS 3 Xrotation Yrotation Zrotation
        JOINT lKnee
        {
            OFFSET   0.000000  -0.410000   0.000000
            CHANNELS 3 Xrotation Yrotation Zrotation
            JOINT lAnkle
            {
                OFFSET   0.000000  -0.390000   0.000000
                CHANNELS 3 Xrotation Yrotation Zrotation
                JOINT lToeJoint
                {
                    OFFSET   0.000000  -0.050000   0.130000
                    CHANNELS 3 Xrotation Yrotation Zrotation
                    End Site
                    {
                        OFFSET   0.010000   0.002000   0.060000
                    }
                }
            }
        }
    }
}
MOTION
Frames: 15
Frame Time:   0.008333
 -2.485053   0.935944   4.057803   6.051069   0.023772  -4.768213  12.044914   1.380873  -2.437896  10.163524   0.437662  -1.476733   3.085586  -1.233204   0.160421   1.751769   1.827450  10.492143  23.449075   9.620307  37.229733  -0.000943  50.440018  -0.000467   5.170489   2.919838  -2.646748   5.573526   0.197442  -8.431329  32.023146  -7.831155 -31.690893   0.004012 -52.530727   0.002437   0.709314  -5.614474   3.181661 -30.717092   0.507065  -1.996359  43.761433  -0.006253  -0.005424  -5.175459   3.784517   5.416976   0.527919   0.005079   0.004262 -29.344440   0.818957   4.817126  45.870995   0.002389   0.000199 -11.504750   2.910928  -3.720904   0.283517   0.003767   0.003862
 -2.487486   0.929420   4.058409   5.618302   0.286215  -4.792696  12.418005   1.295066  -2.378706  10.156201   0.384535  -1.635604   3.057305  -1.260828   0.307156   1.650473   2.018030  10.482708  23.331543  10.030408  36.956180   0.000574  50.046392   0.000670   5.131297   2.964936  -2.679476   5.427540   0.011823  -8.373607  31.743095  -8.578473 -31.436417   0.003564 -52.300000   0.001660   0.852196  -5.504650   2.925066 -30.490594   0.726684  -2.131361  44.201890  -0.003802  -0.003256  -6.473160   3.634977   5.433258   0.696411   0.004595   0.003757 -28.825524   0.780014   4.670146  46.528845   0.002829   0.000545 -12.996365   2.926967  -3.194349   0.714863   0.001738   0.003352
 -2.489939   0.922185   4.059086   5.180802   0.597718  -4.829068  12.753772   1.190878  -2.294304  10.136610   0.308380  -1.776380   3.042008  -1.282111   0.449655   1.531031   2.234355  10.480196  23.208682  10.430234  36.682942   0.001984  49.665655   0.001306   5.095128   2.915196  -2.689588   5.218801  -0.247777  -8.320801  31.431235  -9.325195 -31.153518   0.003579 -52.088104   0.001310   0.992941  -5.366410   2.758714 -30.282452   0.926337  -2.267491  44.762496  -0.001419  -0.001136  -7.689377   3.493653   5.446065   0.778548   0.003934   0.003189 -28.270679   0.748023   4.535883  47.220638   0.003389   0.001147 -14.395535   2.929163  -2.702543   1.053239   0.000499   0.003084
 -2.492418   0.914253   4.059838   4.773638   0.933691  -4.875280  13.033184   1.070518  -2.202939  10.080781   0.211805  -1.896103   3.027224  -1.301224   0.584608   1.403522   2.454631  10.483276  23.084138  10.816718  36.424230   0.003230  49.313386   0.001424   5.061494   2.865900  -2.702872   4.984237  -0.538364  -8.270523  31.113821 -10.052174 -30.870848   0.003728 -51.901918   0.001193   1.131806  -5.280557   2.667381 -30.096173   1.114263  -2.396932  45.316228   0.000531   0.000591  -8.822956   3.361912   5.455317   0.854023   0.003381   0.002737 -27.707370   0.721729   4.417965  47.892906   0.003898   0.001791 -15.700475   2.920457  -2.243869   1.363792  -0.000336   0.002948
 -2.494917   0.905622   4.060658   4.400282   1.279412  -4.928035  13.259592   0.939816  -2.111020   9.990797   0.101868  -2.000090   3.009716  -1.319143   0.711649   1.273800   2.670846  10.490769  22.961151  11.187120  36.182370   0.004268  48.988728   0.001213   5.030140   2.837778  -2.724839   4.739525  -0.841082  -8.222862  30.801256 -10.751405 -30.596728   0.003882 -51.737304   0.001192   1.267960  -5.247245   2.625487 -29.931306   1.291344  -2.519663  45.838110   0.002023   0.001881  -9.880515   3.239103   5.461699   0.923729   0.002916   0.002369 -27.142498   0.699408   4.314413  48.534690   0.004302   0.002356 -16.917677   2.902971  -1.816082   1.649984  -0.000883   0.002857
 -2.497429   0.896291   4.061535   4.058342   1.627250  -4.985685  13.440354   0.803530  -2.021086   9.873967  -0.015920  -2.092101   2.989244  -1.336119   0.830840   1.145369   2.879298  10.501034  22.841892  11.539625  35.956852   0.005082  48.689118   0.000834   5.000740   2.829944  -2.755088   4.493035  -1.145798  -8.178024  30.498656 -11.419095 -30.334564   0.003987 -51.590529   0.001240   1.400641  -5.254055   2.617224 -29.786130   1.457803  -2.636034  46.324509   0.003115   0.002788 -10.867440   3.124624   5.465776   0.987789   0.002522   0.002064 -26.580516   0.679848   4.223299  49.144536   0.004594   0.002800 -18.053034   2.878464  -1.417146   1.913745  -0.001219   0.002771
 -2.499950   0.886262   4.062454   3.744702   1.973520  -5.047426  13.583160   0.665047  -1.934247   9.737693  -0.137657  -2.174516   2.966361  -1.352235   0.942476   1.020393   3.078070  10.512647  22.727699  11.873280  35.746540   0.005676  48.412044   0.000402   4.973014   2.837598  -2.792189   4.249799  -1.446362  -8.135953  30.208740 -12.053519 -30.085799   0.004025 -51.458732   0.001301   1.529405  -5.289963   2.632749 -29.658610   1.614001  -2.746330  46.776453   0.003877   0.003386 -11.788524   3.017924   5.467992   1.046611   0.002187   0.001807 -26.025667   0.662285   4.142910  49.722815   0.004787   0.003122 -19.112017   2.848428  -1.045185   2.156843  -0.001402   0.002676
 -2.502201   0.875080   4.063481   3.210556   2.340426  -4.981885  13.936596   0.578943  -1.885856   9.596873  -0.238198  -2.294686   2.847371  -1.417472   0.922018   0.957966   3.280918  10.464020  22.527107  12.239282  35.657130   0.008565  47.581055   0.000229   5.013789   3.142564  -2.932700   4.040080  -1.764060  -8.033977  29.598141 -12.851997 -29.787325   0.007435 -51.048636   0.003411   1.644435  -5.336156   2.483708 -29.595242   1.534204  -3.073055  48.083541   0.005532   0.002570 -13.245868   2.612248   5.442095   1.167425   0.002025   0.001118 -25.467254   0.697736   3.894307  51.512909   0.008256   0.004526 -20.972105   2.604242  -0.702146   2.652162  -0.001664   0.002102
 -2.504572   0.863359   4.064413   2.571496   2.755424  -4.801711  14.364601   0.472176  -1.930602   9.498213  -0.364727  -2.432289   2.730426  -1.476586   0.889873   0.900715   3.493104  10.467863  22.342703  12.584501  35.587321   0.010259  46.772318   0.000399   5.046811   3.241630  -3.032522   3.779897  -2.130312  -7.916107  28.988230 -13.619534 -29.457546   0.010305 -50.656499   0.005149   1.751530  -5.300789   2.484214 -29.492252   1.457384  -3.487183  49.471108   0.006602   0.001854 -14.603934   2.229186   5.407549   1.245978   0.001775   0.000686 -25.129276   0.615249   3.765341  53.061211   0.007542   0.006749 -23.191914   2.508329  -0.218729  -3.387270   0.023659  -0.006021
 -2.506815   0.851280   4.065446   1.847110   3.099338  -4.527050  14.799309   0.379021  -2.020777   9.438162  -0.492774  -2.605178   2.628524  -1.529657   0.848007   0.848098   3.700025  10.496468  22.171377  12.912668  35.531211   0.011302  46.011088   0.000104   5.077388   3.274914  -3.092414   3.513534  -2.500928  -7.823102  28.403506 -14.355267 -29.146817   0.012352 -50.291096   0.006376   1.854897  -5.253963   2.550091 -29.348695   1.403818  -3.939040  50.796539   0.006544   0.000543 -15.869256   1.873166   5.366911   1.324200   0.001541   0.000309 -24.845244   0.578876   3.608216  54.811557   0.006521   0.008677 -25.341819   2.298670   0.193888  -8.962750   0.041312  -0.000610
 -2.508950   0.838974   4.066591   1.079826   3.359900  -4.192290  15.209749   0.293616  -2.135014   9.391578  -0.617017  -2.794527   2.535887  -1.578362   0.803768   0.799957   3.896470  10.541427  22.011398  13.224159  35.488151   0.011918  45.299393  -0.000714   5.106656   3.292579  -3.128190   3.257914  -2.858960  -7.758669  27.852468 -15.056323 -28.867921   0.013682 -49.951686   0.007152   1.954189  -5.215136   2.627112 -29.202953   1.361111  -4.383963  52.030054   0.005494  -0.000983 -17.049709   1.542068   5.321710   1.399955   0.001307  -0.000011 -24.564310   0.567497   3.425525  56.617608   0.005089   0.009567 -27.405326   2.073549   0.577374 -14.547818   0.053920   0.011051
 -2.510960   0.828808   4.067199   0.284553   3.609101  -3.793423  15.771667   0.179097  -2.288211   9.401492  -0.758532  -2.994524   2.435484  -1.624917   0.762698   0.699209   4.151128  10.708557  21.819090  13.562136  35.463525   0.010633  44.625117  -0.000389   5.130196   3.248164  -3.227488   2.958347  -3.284958  -7.794363  27.296593 -15.760211 -28.600253   0.013830 -49.620387   0.006992   2.046793  -5.099499   2.804359 -28.934223   1.364385  -4.748818  53.941080   0.003580  -0.001077 -18.984975   1.396660   5.542074  -6.819335   0.018366   0.009127 -24.622893   0.584453   3.214244  58.938211   0.004164   0.011575 -30.117569   1.890150   0.593492 -12.694080   0.042167   0.006824
 -2.512522   0.820946   4.067275  -0.560839   3.540459  -3.599222  16.434960   0.164602  -2.277237   9.484865  -0.820584  -3.166748   2.351050  -1.663269   0.718942   0.548527   4.466323  10.890978  21.602005  13.926013  35.428208   0.008593  44.005875  -0.000130   5.156557   3.240000  -3.328638   2.668490  -3.715425  -7.931215  26.760240 -16.469248 -28.405534   0.012713 -49.323598   0.005706   2.133947  -5.019476   2.961758 -29.007993   1.276030  -4.889100  56.110152  -0.001398  -0.006184 -21.298711   1.096819   5.928467  -6.084453   0.012189   0.003333 -24.531029   0.631873   3.230353  60.886651   0.001776   0.009694 -32.002496   1.777753   0.668754 -11.009115   0.031955   0.001841
 -2.513924   0.815633   4.067305  -1.190232   3.671658  -3.489437  16.955222   0.071618  -2.242696   9.524422  -0.922980  -3.183955   2.196353  -1.629953   0.550113   0.558298   4.673008  10.917224  21.344682  14.246853  35.687615   0.005795  43.491786   0.000093   5.209650   3.350775  -3.352677   2.466421  -4.108702  -8.070019  26.003297 -16.955547 -28.414512   0.011220 -49.168780   0.005205   2.222041  -5.076168   2.914582 -28.926214   1.000210  -5.039195  57.513135  -0.003723  -0.007331 -22.864133   0.802695   6.293749  -5.435675   0.007447  -0.000424 -24.450791   0.659479   3.315867  62.233551   0.001798   0.010226 -33.163737   1.587814   0.611100  -9.754554   0.025213   0.000767
 -2.515055   0.811878   4.067348  -1.666645   3.854845  -3.387490  17.336700  -0.028287  -2.205826   9.519529  -1.040187  -3.173992   2.042892  -1.594969   0.385658   0.645777   4.788145  10.916424  21.153687  14.508517  35.973532   0.003410  43.014514   0.000269   5.260205   3.508318  -3.239013   2.307601  -4.425561  -8.154408  25.312653 -17.384676 -28.440269   0.009867 -49.038440   0.004758   2.303501  -5.232202   2.852197 -28.788449   0.720263  -5.195875  58.472098  -0.004466  -0.006916 -24.045849   0.524559   6.531074  -4.833955   0.004423  -0.002668 -24.351488   0.679122   3.377622  63.152544   0.002004   0.010039 -33.982229   1.361592   0.559441  -8.602171   0.019898   0.000109
